<svg role="img" viewBox="0 0 160 26" xmlns="http://www.w3.org/2000/svg" fill="#004393">
  <title>Panasonic</title>
  <path d="M12.628 11.4852c.1596-2.7656-1.9536-5.1368-4.7192-5.296H0v14.32h4.336v-4.4h2.64c.664 0 1.332-.08 1.984-.236 1.988-.412 3.48-2.08 3.668-4.1v-.288zm-4.324.02a1.4 1.4 0 0 1-1.348 1.204c-.324.028-.6.028-.92.028H4.336V9.63h2.528a1.44 1.44 0 0 1 1.44 1.304c0 .19.004.38.004.572zm14.7124 5.8c0-1.112-.04-2.044-.04-3.144a6.616 6.616 0 0 0-.228-1.68 2.664 2.664 0 0 0-1.328-1.72 4.184 4.184 0 0 0-1.264-.472 10.52 10.52 0 0 0-4.26-.08c-.4.06-.788.172-1.16.328a3.08 3.08 0 0 0-1.82 2 2.388 2.388 0 0 0-.096 1.044.496.496 0 0 0 .056.192l3.44.08a1.536 1.536 0 0 1 .096-.612 1.048 1.048 0 0 1 .648-.648 1.96 1.96 0 0 1 1.368 0 .92.92 0 0 1 .624.628.6.6 0 0 1-.08.52.88.88 0 0 1-.4.312l-.296.096c-.452.12-.912.22-1.372.3a27.17 27.17 0 0 0-1.104.2 12.99 12.99 0 0 0-1.46.38 3.148 3.148 0 0 0-1.18.692 2.484 2.484 0 0 0-.82 1.572 3.168 3.168 0 0 0 .048 1.196 2.84 2.84 0 0 0 2.036 2.16c1.108.336 2.296.272 3.364-.172a3.32 3.32 0 0 0 1.376-.992c.072.236.152.468.228.704.048.128.12.244.204.348h3.792a1.656 1.656 0 0 1-.272-.828 53.88 53.88 0 0 1-.104-2.404zm-3.824-.352a1.724 1.724 0 0 1-.268.772 1.624 1.624 0 0 1-.728.58 2.508 2.508 0 0 1-.84.216 1.812 1.812 0 0 1-.652-.052.976.976 0 0 1-.48-.296.816.816 0 0 1-.228-.424.68.68 0 0 1 .256-.696 1.256 1.256 0 0 1 .42-.252c.38-.14.76-.264 1.152-.372.472-.136.928-.312 1.368-.524a3.628 3.628 0 0 1 0 1.048zm13.048-6.848a4.152 4.152 0 0 0-3.02.216 6.648 6.648 0 0 0-1.572 1.048l-.092-1.08h-3.676v10.236h3.928v-5.68a1.652 1.652 0 0 1 .24-.884 1.532 1.532 0 0 1 1.928-.64c.324.128.568.4.668.732.052.172.08.348.08.524v5.936h4.04v-6.608a4.82 4.82 0 0 0-.24-1.576 3.288 3.288 0 0 0-2.288-2.232zm23.8 5c-.48-.56-1.056-.98-1.68-1.224l-.424-.12a18.17 18.17 0 0 0-2.32-.488 7.4 7.4 0 0 1-.624-.12.8.8 0 0 1-.272-.096.468.468 0 0 1-.236-.608v-.032a.888.888 0 0 1 .524-.42 1.964 1.964 0 0 1 1.264 0c.428.12.712.532.68.976h3.608a3.6 3.6 0 0 0-.22-1.24 2.204 2.204 0 0 0-.736-1.02 3.392 3.392 0 0 0-.968-.552 4.784 4.784 0 0 0-1.048-.292 10.51 10.51 0 0 0-2.568-.148 8.13 8.13 0 0 0-1.464.216 4.328 4.328 0 0 0-1.776.844 2.772 2.772 0 0 0-1.12 2.104 2.88 2.88 0 0 0 .208 1.264 2.7 2.7 0 0 0 1.572 1.572c.36.144.732.256 1.112.328l2.216.416c.28.04.552.112.82.204.24.072.412.28.452.524a.76.76 0 0 1-.208.704 1.216 1.216 0 0 1-.68.344 1.968 1.968 0 0 1-1.048-.1 1.472 1.472 0 0 1-.42-.244 1.052 1.052 0 0 1-.356-.524 1.64 1.64 0 0 1-.08-.552h-3.728v.22a3.092 3.092 0 0 0 1.024 2.22 3.96 3.96 0 0 0 1.704.96c1.316.392 2.704.48 4.056.26.64-.092 1.252-.292 1.82-.592a3.74 3.74 0 0 0 .704-.472 3.112 3.112 0 0 0 .984-3.408 2.528 2.528 0 0 0-.772-1.208zm24.7928-8.904h3.828v2.704h-3.828V6.188zm0 4.096h3.828v10.232h-3.828V10.284zm11.488 6.02a4.67 4.67 0 0 1-.072.616 1.572 1.572 0 0 1-.384.796 1.196 1.196 0 0 1-.74.392 1.456 1.456 0 0 1-1.264-.4 2.12 2.12 0 0 1-.608-1.04 4.67 4.67 0 0 1 .048-2.812 1.64 1.64 0 0 1 .712-.928 1.44 1.44 0 0 1 1.628.068c.368.272.612.68.68 1.136h3.496a3.12 3.12 0 0 0-.36-1.668 4.48 4.48 0 0 0-2.896-2.256 6.844 6.844 0 0 0-3.224-.08c-1.92.376-3.452 1.824-3.936 3.72a5.53 5.53 0 0 0-.124 2.484c.092.596.3 1.164.608 1.68.38.684.908 1.28 1.54 1.74.756.592 1.664.956 2.62 1.048.72.08 1.44.048 2.152-.1a4.96 4.96 0 0 0 2.74-1.52 3.712 3.712 0 0 0 1.052-2.876h-3.668zm-14.816-6.212a4.152 4.152 0 0 0-3.02.216 6.624 6.624 0 0 0-1.572 1.048l-.124-1.08h-3.672v10.236h3.936v-5.712a1.7 1.7 0 0 1 .24-.884 1.572 1.572 0 0 1 1.936-.64c.32.132.56.4.656.732a1.81 1.81 0 0 1 .084.56v5.932h4.064v-6.608a4.8 4.8 0 0 0-.24-1.576 3.288 3.288 0 0 0-2.288-2.232zm-31.517 7.2c0-1.112-.04-2.044-.048-3.144a6.7 6.7 0 0 0-.216-1.68 2.7 2.7 0 0 0-1.332-1.72 4.224 4.224 0 0 0-1.26-.472 10.55 10.55 0 0 0-4.268-.08c-.4.06-.784.172-1.156.328a3.064 3.064 0 0 0-1.824 2 2.468 2.468 0 0 0-.1 1.044.596.596 0 0 0 .06.192l3.44.08a1.536 1.536 0 0 1 .096-.612 1.048 1.048 0 0 1 .652-.648 1.96 1.96 0 0 1 1.368 0 .92.92 0 0 1 .624.628.6.6 0 0 1-.084.52.852.852 0 0 1-.392.312l-.3.096c-.452.12-.912.22-1.372.3a25.26 25.26 0 0 0-1.096.2 12.82 12.82 0 0 0-1.464.38 3.048 3.048 0 0 0-1.184.692 2.468 2.468 0 0 0-.84 1.572 3.01 3.01 0 0 0 .048 1.196 2.84 2.84 0 0 0 2.032 2.16c1.108.336 2.3.272 3.368-.172a3.23 3.23 0 0 0 1.34-.98c.068.232.144.464.228.692.04.128.116.248.208.348h3.792a1.67 1.67 0 0 1-.216-.828 53.88 53.88 0 0 1-.104-2.404zm-3.88-.336a1.74 1.74 0 0 1-.28.756 1.484 1.484 0 0 1-.668.58 2.624 2.624 0 0 1-.82.216 1.864 1.864 0 0 1-.7-.06.992.992 0 0 1-.488-.292.856.856 0 0 1-.22-.42.688.688 0 0 1 .228-.68 1.376 1.376 0 0 1 .42-.252c.38-.14.76-.264 1.152-.372.472-.14.932-.316 1.376-.524.04.348.04.7 0 1.048zm21.932-6.88a7.432 7.432 0 0 0-2.308 0 5.32 5.32 0 0 0-2.988 1.484 4.84 4.84 0 0 0-1.532 3.192 5.56 5.56 0 0 0 .192 2.204c.292 1.112.956 2.088 1.88 2.772.588.468 1.28.788 2.016.94 1.04.22 2.108.22 3.148 0 .736-.152 1.436-.472 2.028-.94.92-.68 1.584-1.66 1.872-2.772a5.68 5.68 0 0 0 .2-2.2 4.832 4.832 0 0 0-1.532-3.196 5.32 5.32 0 0 0-2.972-1.48l-.004-.004zm.24 7.256a1.552 1.552 0 0 1-2.052.772 1.484 1.484 0 0 1-.776-.772 3.612 3.612 0 0 1-.288-.984 5.68 5.68 0 0 1 .048-2.06.263.263 0 0 1 .4-.988 1.5 1.5 0 0 1 2.488 0 2.508 2.508 0 0 1 .42.988c.136.68.152 1.376.048 2.06a3.54 3.54 0 0 1-.288.984z"/>
</svg>